<?xml version="1.0" encoding="UTF-8"?>
<svg width="129px" height="25px" viewBox="0 0 129 25" version="1.1" xmlns="http://www.w3.org/2000/svg" xmlns:xlink="http://www.w3.org/1999/xlink">
    <!-- Generator: Sketch 51.1 (57501) - http://www.bohemiancoding.com/sketch -->
    <title>Group</title>
    <desc>Created with Sketch.</desc>
    <defs></defs>
    <g id="Page-1" stroke="none" stroke-width="1" fill="none" fill-rule="evenodd">
        <g id="Artboard-2" transform="translate(-904.000000, -295.000000)">
            <g id="Group" transform="translate(905.000000, 296.000000)">
                <path d="M1.8581484,22.2432853 C1.58123296,22.2432853 1.09033986,22.2432853 0.385469093,22.2432853 L0.385469093,0 C1.09033986,3.61421724e-15 1.58123296,5.42132586e-15 1.8581484,5.42132586e-15 C2.14765091,5.42132586e-15 2.63854401,3.61421724e-15 3.33082771,0 L3.33082771,9.65489593 L16.4716585,9.65489593 L16.4716585,0 C17.1765292,6.43099153e-18 17.6674223,9.6464873e-18 17.9443378,9.6464873e-18 C18.2212532,9.6464873e-18 18.7027061,6.43099153e-18 19.3886963,0 L19.3886963,22.2432853 C18.7027061,22.2432853 18.2212532,22.2432853 17.9443378,22.2432853 C17.6674223,22.2432853 17.1765292,22.2432853 16.4716585,22.2432853 L16.4716585,12.2751037 L3.33082771,12.2751037 L3.33082771,22.2432853 C2.63854401,22.2432853 2.14765091,22.2432853 1.8581484,22.2432853 Z M31.1533873,6.55051936 C32.6071934,6.55051936 33.9240954,6.89702888 35.1041328,7.5900583 C36.2841702,8.28308773 37.2187458,9.23242887 37.9078876,10.4381102 C38.5970295,11.6437915 38.9415952,12.9871092 38.9415952,14.4681036 L38.9415952,22.3572074 C38.158914,22.3572074 37.6291156,22.3572074 37.3522002,22.3572074 C37.0752847,22.3572074 36.6421774,22.3572074 36.0528781,22.3572074 L36.0528781,19.7654802 C35.3920572,20.5819258 34.5896438,21.2179843 33.6456139,21.6736749 C32.7015839,22.1293655 31.6820469,22.3572074 30.5869722,22.3572074 C29.2275691,22.3572074 27.9956286,22.0154446 26.8911136,21.3319087 C25.7865986,20.6483728 24.9181041,19.7037784 24.285604,18.4980971 C23.653104,17.2924157 23.3368587,15.949098 23.3368587,14.4681036 C23.3368587,12.9871092 23.6767044,11.6437915 24.3564059,10.4381102 C25.0361075,9.23242887 25.9754031,8.28308773 27.1743211,7.5900583 C28.3732391,6.89702888 29.6995813,6.55051936 31.1533873,6.55051936 Z M31.1533873,19.7939607 C32.0974173,19.7939607 32.9517515,19.5613721 33.7164157,19.096188 C34.48108,18.6310038 35.08053,17.9949453 35.5147838,17.1879932 C35.9490375,16.3810411 36.1661611,15.4744203 36.1661611,14.4681036 C36.1661611,13.4617869 35.9490375,12.5504194 35.5147838,11.7339738 C35.08053,10.9175282 34.48108,10.2767229 33.7164157,9.81153878 C32.9517515,9.34635465 32.0974173,9.11376607 31.1533873,9.11376607 C30.2093574,9.11376607 29.3550232,9.34635465 28.5903589,9.81153878 C27.8256947,10.2767229 27.2215246,10.9175282 26.7778305,11.7339738 C26.3341365,12.5504194 26.1122928,13.4617869 26.1122928,14.4681036 C26.1122928,15.4744203 26.3341365,16.3810411 26.7778305,17.1879932 C27.2215246,17.9949453 27.8256947,18.6310038 28.5903589,19.096188 C29.3550232,19.5613721 30.2093574,19.7939607 31.1533873,19.7939607 Z M118.775426,6.55051936 C120.229232,6.55051936 121.546134,6.89702888 122.726172,7.5900583 C123.906209,8.28308773 124.840785,9.23242887 125.529926,10.4381102 C126.219068,11.6437915 126.563634,12.9871092 126.563634,14.4681036 L126.563634,22.3572074 C125.780953,22.3572074 125.251154,22.3572074 124.974239,22.3572074 C124.697324,22.3572074 124.264216,22.3572074 123.674917,22.3572074 L123.674917,19.7654802 C123.014096,20.5819258 122.211683,21.2179843 121.267653,21.6736749 C120.323623,22.1293655 119.304086,22.3572074 118.209011,22.3572074 C116.849608,22.3572074 115.617667,22.0154446 114.513152,21.3319087 C113.408637,20.6483728 112.540143,19.7037784 111.907643,18.4980971 C111.275143,17.2924157 110.958898,15.949098 110.958898,14.4681036 C110.958898,12.9871092 111.298743,11.6437915 111.978445,10.4381102 C112.658146,9.23242887 113.597442,8.28308773 114.79636,7.5900583 C115.995278,6.89702888 117.32162,6.55051936 118.775426,6.55051936 Z M118.775426,19.7939607 C119.719456,19.7939607 120.57379,19.5613721 121.338455,19.096188 C122.103119,18.6310038 122.702569,17.9949453 123.136823,17.1879932 C123.571076,16.3810411 123.7882,15.4744203 123.7882,14.4681036 C123.7882,13.4617869 123.571076,12.5504194 123.136823,11.7339738 C122.702569,10.9175282 122.103119,10.2767229 121.338455,9.81153878 C120.57379,9.34635465 119.719456,9.11376607 118.775426,9.11376607 C117.831396,9.11376607 116.977062,9.34635465 116.212398,9.81153878 C115.447733,10.2767229 114.843563,10.9175282 114.399869,11.7339738 C113.956175,12.5504194 113.734332,13.4617869 113.734332,14.4681036 C113.734332,15.4744203 113.956175,16.3810411 114.399869,17.1879932 C114.843563,17.9949453 115.447733,18.6310038 116.212398,19.096188 C116.977062,19.5613721 117.831396,19.7939607 118.775426,19.7939607 Z M49.5451352,22.5909441 C48.2612546,22.5909441 47.0529144,22.3915824 45.9200785,21.9928532 C44.7872426,21.5941239 43.8998678,21.0719863 43.2579274,20.4264246 C43.0124796,20.1795922 42.8897576,19.8852965 42.8897576,19.5435285 C42.8897576,19.0878379 43.0785608,18.7175949 43.4561727,18.4327883 C43.8149041,18.1669688 44.1453096,18.034061 44.4473992,18.034061 C44.8250111,18.034061 45.1837371,18.2049424 45.5235879,18.5467104 C45.8823193,18.9454396 46.4204083,19.2919491 47.137871,19.5862493 C47.8553337,19.8805495 48.6199865,20.0276973 49.4318522,20.0276973 C50.5080463,20.0276973 51.3435003,19.8473225 51.9382391,19.4865675 C52.532978,19.1258124 52.8303429,18.6416485 52.8303429,18.034061 C52.8303429,17.4454607 52.537698,16.95655 51.9523995,16.5673143 C51.3671009,16.1780786 50.3758844,15.8505559 48.9787201,15.5847364 C45.3536452,14.8822134 43.541135,13.3822544 43.541135,11.0848144 C43.541135,10.1544461 43.8148996,9.36649298 44.3624369,8.72093132 C44.9099743,8.07536966 45.6274262,7.59120568 46.5148144,7.26842486 C47.4022025,6.94564403 48.3462182,6.78425603 49.34689,6.78425603 C50.5741288,6.78425603 51.6739072,6.98361767 52.646258,7.38234693 C53.6186088,7.78107619 54.3879817,8.33169405 54.9543996,9.03421703 C55.1998474,9.33801075 55.3225695,9.64179992 55.3225695,9.94559364 C55.3225695,10.2683745 55.1620868,10.5626702 54.8411166,10.8284897 C54.63343,10.9803866 54.3691056,11.0563339 54.0481354,11.0563339 C53.5572399,11.0563339 53.1135525,10.8759591 52.7170599,10.515204 C52.2450449,10.0785005 51.7447166,9.76996467 51.2160598,9.58958715 C50.6874031,9.40920963 50.0454724,9.31902222 49.2902484,9.31902222 C48.4217409,9.31902222 47.709009,9.4661701 47.1520314,9.76047026 C46.5950537,10.0547704 46.3165691,10.4677338 46.3165691,10.9993728 C46.3165691,11.379115 46.4109706,11.6971443 46.5997766,11.9534702 C46.7885826,12.2097962 47.1473086,12.4471315 47.6759654,12.6654832 C48.2046221,12.8838349 48.9692749,13.0974367 49.9699466,13.3062949 C52.0279318,13.7240112 53.4864361,14.3031093 54.3455034,15.0436065 C55.2045706,15.7841037 55.6340978,16.7429383 55.6340978,17.9201389 C55.6340978,18.7935459 55.3980938,19.5862457 54.9260789,20.2982623 C54.4540639,21.0102788 53.7602123,21.5703901 52.8445033,21.9786129 C51.9287943,22.3868357 50.8290159,22.5909441 49.5451352,22.5909441 Z M67.4133405,6.52203884 C68.7161018,6.52203884 69.8866813,6.80684118 70.9251143,7.37645441 C71.9635472,7.94606764 72.7754007,8.77674113 73.3606993,9.86849982 C73.9459978,10.9602585 74.2386427,12.275096 74.2386427,13.8130517 L74.2386427,20.8192594 C74.2386427,21.0977369 74.2386427,21.5724123 74.2386427,22.2432853 C73.5526524,22.2622723 73.0711996,22.2717658 72.7942842,22.2717658 C72.5173687,22.2717658 72.0359159,22.2717658 71.3499256,22.2717658 C71.3499256,21.5819058 71.3499256,21.0977369 71.3499256,20.8192594 L71.3499256,13.8130517 C71.3499256,12.275096 70.9392787,11.1121531 70.1179727,10.3241881 C69.2966667,9.53622316 68.2063285,9.14224659 66.8469254,9.14224659 C66.0539403,9.14224659 65.3317682,9.30363458 64.6803876,9.62641541 C64.0290069,9.94919624 63.5192384,10.3858932 63.1510668,10.9365193 C62.7828951,11.4871454 62.598812,12.1042171 62.598812,12.787753 L62.598812,20.8192594 C62.598812,21.0977369 62.598812,21.5724123 62.598812,22.2432853 C61.9254088,22.2622723 61.443956,22.2717658 61.1544535,22.2717658 C60.877538,22.2717658 60.3960852,22.2717658 59.7100949,22.2717658 C59.7100949,21.5819058 59.7100949,21.0977369 59.7100949,20.8192594 L59.7100949,5.68434189e-14 L61.1544535,5.68482483e-14 L62.598812,5.68434189e-14 L62.598812,8.43023361 C63.2029912,7.82264617 63.9204431,7.35272231 64.7511895,7.02044792 C65.5819358,6.68817354 66.4693106,6.52203884 67.4133405,6.52203884 Z M105.423031,6.49355832 C106.090146,6.49355832 107.273038,6.73780035 108.971708,7.2262844 L108.594956,8.37327257 L108.199324,9.55650868 C107.550522,9.36261113 107.163185,9.25300429 107.037314,9.22768814 C106.28209,9.09477839 105.66848,9.02832451 105.196465,9.02832451 C103.837062,9.02832451 102.742004,9.34160709 101.911258,9.96818164 C101.080511,10.5947562 100.665144,11.4396698 100.665144,12.5029478 L100.665144,20.8192594 C100.665144,21.1230531 100.665144,21.5977284 100.665144,22.2432853 C100.035796,22.2432853 99.5637832,22.2432853 99.2491065,22.2432853 C98.9470169,22.2432853 98.4750043,22.2432853 97.8330687,22.2432853 C97.8330687,21.6103865 97.8330687,21.1357112 97.8330687,20.8192594 L97.8330687,8.08846738 C97.8330687,7.78467366 97.8330687,7.32467013 97.8330687,6.70845678 C98.4750043,6.70845678 98.9470169,6.70845678 99.2491065,6.70845678 C99.568408,6.70845678 100.040421,6.70845678 100.665144,6.70845678 C100.665144,7.31666297 100.665144,7.77666651 100.665144,8.08846738 L100.665144,8.62959724 C101.231562,7.96504848 101.930134,7.44291085 102.76088,7.0631687 C103.591627,6.68342655 104.479001,6.49355832 105.423031,6.49355832 Z" id="Hashora" stroke="#000000" fill="#000000"></path>
                <g id="_Group_2" transform="translate(77.500000, 5.990000)" fill="#FF4300" fill-rule="nonzero">
                    <g id="_Group_3" transform="translate(-0.309563, 0.000000)">
                        <path d="M12.0097365,0.348541123 C11.753133,0.239708076 11.4965295,0.146422608 11.2321502,0.0686847176 L11.1699433,0.0686847176 L9.20264991,2.04322713 C9.03661339,2.2064506 8.81343836,2.29848575 8.58058086,2.29976217 C8.34721975,2.30102644 8.12311373,2.20860736 7.95851181,2.04322713 L5.97566672,0.0220419834 L5.91345982,0.0220419834 C5.6646322,0.0997798737 5.41580458,0.193065342 5.13587351,0.301898389 L5.0114597,0.348541123 L7.28201172,2.68067783 C7.99441933,3.38718574 9.14341481,3.38718574 9.85582241,2.68067783 L12.0097365,0.348541123 Z" id="_Path_"></path>
                        <path d="M10.843357,7.43823672 C10.533927,7.7371495 10.3622014,8.15086961 10.3690294,8.58098371 C10.3655317,9.01273547 10.5365712,9.42760575 10.843357,9.73150449 L14.7312886,13.618399 L15.3067024,14.1936594 L15.8821163,13.618399 L15.9676508,13.5328873 L11.5043054,9.07073242 C11.2384958,8.80132848 11.2384958,8.36841273 11.5043054,8.09900879 L15.9443232,3.68349662 L16.014306,3.62130631 L15.9598749,3.54356842 C15.8199094,3.3414499 15.672168,3.14710518 15.5166507,2.95276045 L15.446668,2.85947498 L11.3332364,6.94071422 L10.843357,7.43823672 Z" id="_Path_2"></path>
                        <path d="M13.969254,8.58098371 C13.9665172,9.06209227 14.1570032,9.52417766 14.4980127,9.8636589 L16.7763406,12.1413791 L16.8385475,11.9936771 C16.9447831,11.7402438 17.0356658,11.4806482 17.1107027,11.2162982 L17.1107027,11.1541079 L15.1356335,9.17956547 C14.7998567,8.83291159 14.7998567,8.2824131 15.1356335,7.93575922 L17.1107027,5.96121681 L17.1107027,5.90680028 C17.0367179,5.64211848 16.9458126,5.38245817 16.8385475,5.12942138 L16.7763406,4.98171939 L14.4980127,7.25943957 C14.1479857,7.60885318 13.9568254,8.08662656 13.969254,8.58098371 Z" id="_Path_3"></path>
                        <path d="M7.42197726,6.31103731 C7.72595708,6.61774134 8.14093805,6.78873517 8.572805,6.78523844 C9.00303386,6.7920646 9.41686434,6.62038483 9.71585687,6.31103731 L13.6037884,2.42414279 L14.2802885,1.71672799 L14.194754,1.64676389 C14.0053618,1.4891984 13.8081215,1.34130759 13.6037884,1.20365792 L13.5477392,1.1703399 L12.9739435,1.74782315 L9.08601196,5.63471767 C8.95751571,5.76432103 8.78255074,5.83722816 8.60002052,5.83722816 C8.41749029,5.83722816 8.24252533,5.76432103 8.11402908,5.63471767 L3.61180434,1.12592003 L3.54182158,1.18033655 C3.33748853,1.31798622 3.14024817,1.46587703 2.95085598,1.62344252 L2.85754562,1.69340663 L6.93209789,5.79019345 L7.42197726,6.31103731 Z" id="_Path_4"></path>
                        <path d="M8.572805,14.9166218 C8.80633771,14.9144748 9.03077292,15.0070297 9.19487405,15.1731568 L11.1621674,17.1399254 L11.2243743,17.1399254 C11.4732019,17.0621875 11.7298054,16.9689021 12.0019606,16.860069 L12.149702,16.8056525 L9.87137414,14.5279323 C9.15896653,13.8214244 8.00997105,13.8214244 7.29756345,14.5279323 L5.0114597,16.7901049 L5.1592011,16.8445215 C5.42358045,16.9533545 5.67240806,17.04664 5.93678741,17.1243779 L5.99899431,17.1243779 L7.97406354,15.1576092 C8.13356504,15.0007502 8.34908246,14.9140066 8.572805,14.9166218 Z" id="_Path_5"></path>
                        <path d="M8.572805,11.3095837 C8.75342151,11.3129634 8.92590575,11.3852763 9.05490851,11.5117022 L12.9428401,15.3985967 L13.5338057,16.0204998 L13.6115643,15.9738571 C13.8059609,15.8339289 14.0081333,15.6862269 14.2025299,15.5307511 L14.2880644,15.460787 L13.6193401,14.7533722 L9.7314086,10.8664777 C9.42833969,10.563167 9.01718898,10.392599 8.58835672,10.3922766 C8.15733517,10.3930835 7.7439422,10.563423 7.43752899,10.8664777 L2.8419939,15.4530132 L2.93530425,15.5229773 C3.12421537,15.6811504 3.32148805,15.8290655 3.52626985,15.9660833 L3.59625262,16.0204998 L8.12180494,11.5117022 C8.24334536,11.3929028 8.40322701,11.3212509 8.572805,11.3095837 Z" id="_Path_6"></path>
                        <path d="M3.17635601,8.58098371 C3.18566984,8.10463141 3.00687242,7.64379227 2.67870077,7.29830852 L0.345941844,5.01281454 L0.28373494,5.16051653 C0.182648719,5.41705157 0.0893383622,5.67358661 0.0115797313,5.93789544 L0.0115797313,5.99231196 L1.98664896,7.96685438 C2.32242567,8.31350825 2.32242567,8.86400674 1.98664896,9.21066062 L0.0115797313,11.185203 L0.0115797313,11.2473933 C0.0893383622,11.4883808 0.182648719,11.7449158 0.28373494,12.0247723 L0.345941844,12.1724742 L2.67870077,9.8636589 C3.00833189,9.51910151 3.18737241,9.0576358 3.17635601,8.58098371 Z" id="_Path_7"></path>
                        <path d="M6.30225297,9.73150449 C6.60538855,9.42517301 6.77577349,9.0118903 6.77658062,8.58098371 C6.77798467,8.15192305 6.60710661,7.74024476 6.30225297,7.43823672 L1.71449375,2.83615361 L1.63673512,2.92943908 C1.48899372,3.11601002 1.34125232,3.31035474 1.19351092,3.52024705 L1.14685574,3.59798494 L5.64130461,8.12233016 C5.89902893,8.39499939 5.89902893,8.82138455 5.64130461,9.09405379 L1.12352815,13.5639825 L1.1779592,13.6417204 C1.31501358,13.8464476 1.46296809,14.0436676 1.62118339,14.2325283 L1.69116616,14.3258138 L5.78904601,10.2212532 L6.30225297,9.73150449 Z" id="_Path_8"></path>
                    </g>
                </g>
            </g>
        </g>
    </g>
</svg>